<svg xmlns="http://www.w3.org/2000/svg" xmlns:xlink="http://www.w3.org/1999/xlink" xml:space="preserve" style="shape-rendering:geometricPrecision;text-rendering:geometricPrecision;image-rendering:optimizeQuality;" viewBox="0 0 4.6806 4.466375" x="0px" y="0px" fill-rule="evenodd" clip-rule="evenodd"><defs><style type="text/css">
   
    .fil0 {fill:black}
   
  </style></defs><g><path class="fil0" d="M0.463192 0c0.255785,0 0.463192,0.207807 0.463192,0.464192 0,0.256285 -0.207407,0.464092 -0.463192,0.464092 -0.255785,0 -0.463192,-0.207807 -0.463192,-0.464092 0,-0.256385 0.207407,-0.464192 0.463192,-0.464192z"/><path class="fil0" d="M1.61887 0.174722c0.924585,0 1.84907,0 2.77366,0 0.384028,0 0.384028,0.58064 0,0.58064 -0.924585,0 -1.84907,0 -2.77366,0 -0.384028,0 -0.384028,-0.58064 0,-0.58064z"/><path class="fil0" d="M0.463192 1.32241c0.255785,0 0.463192,0.207807 0.463192,0.464192 0,0.256285 -0.207407,0.464092 -0.463192,0.464092 -0.255785,0 -0.463192,-0.207807 -0.463192,-0.464092 0,-0.256385 0.207407,-0.464192 0.463192,-0.464192z"/><path class="fil0" d="M1.61887 1.49713c0.924585,0 1.84907,0 2.77366,0 0.384028,0 0.384028,0.58064 0,0.58064 -0.924585,0 -1.84907,0 -2.77366,0 -0.384028,0 -0.384028,-0.58064 0,-0.58064z"/><path class="fil0" d="M0.463192 2.64481c0.255785,0 0.463192,0.207807 0.463192,0.464192 0,0.256285 -0.207407,0.464092 -0.463192,0.464092 -0.255785,0 -0.463192,-0.207807 -0.463192,-0.464092 0,-0.256385 0.207407,-0.464192 0.463192,-0.464192z"/><path class="fil0" d="M1.61887 2.81954c0.924585,0 1.84907,0 2.77366,0 0.384028,0 0.384028,0.58064 0,0.58064 -0.924585,0 -1.84907,0 -2.77366,0 -0.384028,0 -0.384028,-0.58064 0,-0.58064z"/></g><text x="0" y="18.5731" fill="#000000" font-size="5px" font-weight="bold" font-family="'Helvetica Neue', Helvetica, Arial-Unicode, Arial, Sans-serif">Created by Mahabbah</text><text x="0" y="23.5731" fill="#000000" font-size="5px" font-weight="bold" font-family="'Helvetica Neue', Helvetica, Arial-Unicode, Arial, Sans-serif">from the Noun Project</text></svg>