<svg xmlns="http://www.w3.org/2000/svg" data-name="Layer 1" viewBox="0 0 64 80" x="0px" y="0px"><title>basic ui1</title><path d="M54.55,32.11H49.4a1,1,0,0,0-1,.94V54.19a1,1,0,0,1-1,.94H41.23a1,1,0,0,1-.44-.11h0a.93.93,0,0,1-.51-.83v-17a1,1,0,0,0-1-.94H24.69a1,1,0,0,0-1,.94v17a1,1,0,0,1-1,.94H16.52a1,1,0,0,1-1-.94V33.05a1,1,0,0,0-1-.94H9.45a.56.56,0,0,1-.41-1L31.59,9a.58.58,0,0,1,.81,0L55,31.15A.56.56,0,0,1,54.55,32.11Z"/><text x="0" y="79" fill="#000000" font-size="5px" font-weight="bold" font-family="'Helvetica Neue', Helvetica, Arial-Unicode, Arial, Sans-serif">Created by Abdullah Al Noman</text><text x="0" y="84" fill="#000000" font-size="5px" font-weight="bold" font-family="'Helvetica Neue', Helvetica, Arial-Unicode, Arial, Sans-serif">from the Noun Project</text></svg>